<?xml version="1.0" encoding="utf-8"?>
<!-- Generator: Adobe Illustrator 25.2.1, SVG Export Plug-In . SVG Version: 6.00 Build 0)  -->
<svg version="1.1" id="Layer_1" xmlns="http://www.w3.org/2000/svg" xmlns:xlink="http://www.w3.org/1999/xlink" x="0px" y="0px"
	 viewBox="0 0 296.4 72" style="enable-background:new 0 0 296.4 72;" xml:space="preserve">
<style type="text/css">
	.st0{fill:none;}
	.st1{clip-path:url(#SVGID_2_);fill:none;stroke:#221F1F;stroke-width:0.9736;stroke-miterlimit:10;}
	.st2{fill:#8C1A1C;}
	.st3{enable-background:new    ;}
	.st4{fill:#221F1F;}
</style>
<g>
	<line class="st0" x1="182.6" y1="51.5" x2="182.6" y2="14.9"/>
	<g>
		<g>
			<defs>
				<rect id="SVGID_1_" x="0.2" y="14.9" width="288.9" height="47.7"/>
			</defs>
			<clipPath id="SVGID_2_">
				<use xlink:href="#SVGID_1_"  style="overflow:visible;"/>
			</clipPath>
			<line class="st1" x1="182.6" y1="51.5" x2="182.6" y2="14.9"/>
		</g>
	</g>
	<path class="st2" d="M51,39.4c-3,0.9-4,1.4-5,1.9c-1.3,0.7-2,2-2,3.6c0,1.2,0.4,3.3,3.4,3.3c1,0,2.4-0.2,3.6-1.1V39.4L51,39.4z
		 M45.6,51.5c-6.1,0-6.6-4.7-6.6-6.2c0-1.7,0.5-4.7,4.4-6.2c4-1.5,4.9-1.7,7.7-2.6v-0.7c0-1.4,0-1.7-0.3-2.5
		c-0.5-1.6-2.1-2.6-4.1-2.6c-3.1,0-4.3,2.4-4.3,2.4L42,33.5l-1.1-0.7l0.1-0.4c0.6-1.8,2.8-4.8,7.6-4.8c3.2,0,5.2,0.9,6.5,2.9
		c0.9,1.6,1,3.7,1,6c0,2,0,4.2-0.1,5.9c0,1.2-0.1,2.3-0.1,2.9c0,1.6,0.3,2.9,1.6,2.9c0.3,0,0.6-0.1,0.7-0.2l0.4-0.3l0.7,0.9
		l-0.2,0.3c-1.2,1.5-2.4,2.6-4.5,2.6c-1.8,0-3-0.9-3.5-2.3C50.3,50.1,48.4,51.5,45.6,51.5L45.6,51.5z"/>
	<path class="st2" d="M8.1,51.4c-2.9,0-5.2-0.3-7.5-1.1l-0.3-0.1v-1.7c0-2.2,0-3.1-0.1-3.8l-0.1-1.2h1.3V44c0.1,1,0.4,2.1,1,2.8
		c1,1.1,3.2,1.8,5.2,1.8c4.3,0,6.3-1.7,6.3-5.2c0-3-1.9-4.3-4.4-6.1L9.3,37l-2.7-1.8c-3.8-2.5-5.7-4.6-5.7-8.6c0-2,0.7-8.4,10.2-8.4
		c3.9,0,6.9,0.5,7,0.5l0.4,0.1v0.4c0,0,0,1.3,0,2.6c0,1.1,0,2,0,3v0.7h-1.1v-0.4c-0.1-1.2-0.4-2.1-1.1-2.8c-0.9-0.9-2.9-1.4-5.1-1.4
		c-5,0-5.6,2.6-5.6,4.6c0,2.7,1.4,3.6,4.4,5.6l3.4,2.3c2.9,2,5.7,3.8,5.7,8.7C19.1,50.5,11.4,51.4,8.1,51.4L8.1,51.4z"/>
	<path class="st2" d="M30.6,51.5c-3.5,0-5.4-1.3-6.3-4.1c-0.4-1.1-0.4-3.3-0.4-4.7c0-3.7,0-6.6,0.1-10v-1.6h-3v-0.9l0.3-0.1
		c1.4-0.6,1.9-1,2.5-1.5c2.2-1.7,3.7-4.6,3.7-4.6l0.5-0.9h1v5.2h7.7v2.8H29v12c0,3.6,0.7,5.7,4,5.7c1.6,0,2.8-0.6,2.8-0.6l0.5-0.2
		l0.4,0.9l-0.2,0.2C36.4,49.2,34.7,51.5,30.6,51.5L30.6,51.5z"/>
	<path class="st2" d="M61.4,51.3v-1.1h0.4c0.4,0,1.3-0.2,2-1c0.7-0.8,0.7-2.7,0.7-6.7V36c0-2.8,0-4-0.4-4.6c-0.5-0.7-1.5-0.7-2-0.8
		c-0.1,0-0.1,0-0.2,0h-0.4v-1.3H62c0.1,0,0.2,0,0.3,0c0.7,0,2.3-0.1,4.1-0.4c1.3-0.2,2.1-0.7,2.4-0.8l0.3-0.1l0.4,0.3v1.8
		c1.1-0.9,3.4-2.2,6.6-2.2c4.1,0,6.7,1.9,7.5,5.4c0.2,0.9,0.3,3,0.3,4.1V44c0,3.8,0.1,4.8,0.8,5.5c0.4,0.3,1.1,0.6,1.7,0.6h0.4v1.1
		l-1.1-0.1c-1.6-0.1-3-0.2-4.5-0.2c-1.7,0-3.1,0-5.1,0.2l-0.5,0.1v-1.1L76,50c0.9-0.1,1.5-0.4,1.9-0.8c0.7-0.7,0.8-2.5,0.8-4
		c0-0.3,0-0.5,0-0.8c0-0.9,0-2.7,0-4c0-1.7,0-3.5-0.2-5.2c-0.3-3-1.9-4.3-4.8-4.3c-2,0-3.3,0.5-4.2,1v12c0,3.8,0.2,4.8,0.9,5.5
		c0.4,0.3,1.1,0.6,1.7,0.6h0.4v1.1L71.3,51c-1.6-0.1-2.9-0.2-4.4-0.2c-1.6,0-3.2,0-5.2,0.2L61.4,51.3L61.4,51.3z"/>
	<path class="st2" d="M89.6,51.3v-1.1H90c0.4,0,1.3-0.2,2-0.9c0.7-0.8,0.7-2.7,0.7-6.6V31.2h-2.9v-1.3l0.3-0.1
		c1.3-0.5,2.1-1,2.7-1.4c0-2,0.1-4.7,0.3-6.1c0.9-4.7,3.9-7.1,9.1-7.1c2.2,0,4.3,0.7,5.5,1.7l0.2,0.1l0.1,0.5l-2.2,3.2h-0.5
		l-0.1-0.3c-0.9-1.9-2.1-2.7-3.8-2.7c-0.7,0-1.7,0.2-2.3,0.8c-1,1-1.1,2.5-1.1,5.4v4.4h5v2.8h-5v12.7c0,3,0.1,4.5,0.5,5.1
		c0.6,1,2.6,1,3.1,1h0.5v1.2h-0.5c-2.7,0-4.6-0.1-5.9-0.1c-1.7,0-3.6,0-5.6,0.2L89.6,51.3L89.6,51.3z"/>
	<path class="st2" d="M115.9,30.3c-1.3,0-2.4,0.3-3.2,1c-1.8,1.5-2.7,4.4-2.7,8.4c0,1.5,0.3,9.3,5.8,9.3c1.3,0,2.4-0.4,3.2-1
		c1.8-1.5,2.7-4.4,2.7-8.4C121.7,38,121.4,30.3,115.9,30.3L115.9,30.3z M115.6,51.6c-6.9,0-11-4.4-11-11.7c0-5.7,3-12.3,11.5-12.3
		c6.9,0,11,4.4,11,11.7C127.1,45,124.1,51.6,115.6,51.6L115.6,51.6z"/>
	<path class="st2" d="M129.3,51.3v-1.2h0.4c0.4,0,1.3-0.2,2-0.9c0.7-0.8,0.7-2.7,0.7-6.6V36c0-2.8,0-4-0.4-4.6
		c-0.5-0.7-1.5-0.7-2-0.8c-0.1,0-0.1,0-0.2,0h-0.4v-1.4h0.5c0.1,0,0.2,0,0.4,0c0.7,0,2.4-0.1,4.1-0.4c1.1-0.2,2-0.5,2.4-0.7l0.3-0.1
		l0.4,0.2v2c1.1-1,2.8-2.1,5.2-2.1c1.6,0,2.9,0.4,3.8,1.3l0.2,0.1v0.7l-1.9,3.5h-0.9l-0.1-0.2c-0.5-0.8-1.6-1.8-3.6-1.8
		c-0.9,0-1.8,0.2-2.5,0.7V44c0,3,0.1,4.5,0.5,5c0.6,1,2.6,1,3.1,1h0.5v1.3h-0.5c-2.5-0.1-4.3-0.2-5.7-0.2c-1.7,0-3.6,0-5.6,0.2
		H129.3L129.3,51.3z"/>
	<path class="st2" d="M159.6,30.5c-4.4,0-6.6,3.1-6.6,9.4c0,2.6,0.7,8.5,7.3,8.5h0.2c0.8,0,2.3-0.1,3.6-0.9V32
		C163.8,31.6,162.4,30.5,159.6,30.5L159.6,30.5z M164.8,51.6l-0.6-0.2v-1.9c-1.1,0.8-3.3,2.2-6.3,2.2c-6.2,0-10.2-4.4-10.2-11.1
		c0-2.2,0.4-4.4,1.2-6.2c1.9-4.2,5.8-6.6,10.8-6.6c1.8,0,3.4,0.2,4.4,0.4v-4.9c0-2.9,0-4.4-0.4-5c-0.5-0.7-1.5-0.7-2-0.8
		c-0.1,0-0.1,0-0.2,0h-0.4l0.1-1h0.5c0.1,0,2.7-0.2,4.8-0.6c0.9-0.1,1.8-0.3,2.2-0.5l0.2-0.1l0.4,0.2v0.2c-0.2,1.9-0.2,5.9-0.2,9
		v18.7c0,2.8,0,4.5,0.4,5.1c0.5,0.7,1.5,0.8,2,0.8c0.1,0,0.1,0,0.2,0h0.4v1.2h-0.5c-0.5,0-2.5,0.1-4.4,0.5c-1.1,0.2-1.9,0.3-2.3,0.5
		L164.8,51.6L164.8,51.6z"/>
	<g class="st3">
		<path class="st4" d="M201.4,52c-1.3,0-2.5-0.2-3.6-0.7c-1.1-0.5-2-1.2-2.8-2.1c-0.8-0.9-1.4-2-1.8-3.3s-0.6-2.8-0.6-4.4
			c0-1.6,0.2-3.1,0.6-4.4c0.4-1.3,1-2.4,1.8-3.3c0.8-0.9,1.7-1.6,2.8-2c1.1-0.5,2.3-0.7,3.6-0.7s2.5,0.2,3.6,0.7
			c1.1,0.5,2,1.2,2.8,2c0.8,0.9,1.4,2,1.8,3.3c0.4,1.3,0.6,2.8,0.6,4.4c0,1.7-0.2,3.1-0.6,4.4s-1,2.4-1.8,3.3
			c-0.8,0.9-1.7,1.6-2.8,2.1C203.9,51.8,202.7,52,201.4,52z M201.4,48.9c0.8,0,1.5-0.2,2.1-0.5s1.2-0.9,1.6-1.5
			c0.4-0.7,0.8-1.4,1-2.4c0.2-0.9,0.4-2,0.4-3.1c0-2.3-0.5-4.1-1.4-5.4c-0.9-1.3-2.2-1.9-3.8-1.9s-2.9,0.6-3.8,1.9
			c-0.9,1.3-1.4,3.1-1.4,5.4c0,1.1,0.1,2.2,0.4,3.1c0.2,0.9,0.6,1.7,1,2.4c0.4,0.7,1,1.2,1.6,1.5C199.9,48.7,200.6,48.9,201.4,48.9z
			"/>
		<path class="st4" d="M214.3,31.3h3.6l6.2,11.4l2.1,4.3h0.1c-0.1-1.1-0.2-2.2-0.3-3.4c-0.1-1.2-0.2-2.4-0.2-3.5v-8.8h3.4v20.3h-3.6
			l-6.2-11.4l-2.1-4.3h-0.1c0.1,1.1,0.2,2.2,0.3,3.4c0.1,1.2,0.2,2.3,0.2,3.5v8.9h-3.4V31.3z"/>
		<path class="st4" d="M234.4,31.3h3.6v17.3h8.3v3h-11.9V31.3z"/>
		<path class="st4" d="M249.8,31.3h3.6v20.3h-3.6V31.3z"/>
		<path class="st4" d="M258.4,31.3h3.6l6.2,11.4l2.1,4.3h0.1c-0.1-1.1-0.2-2.2-0.3-3.4c-0.1-1.2-0.2-2.4-0.2-3.5v-8.8h3.4v20.3h-3.6
			l-6.2-11.4l-2.1-4.3h-0.1c0.1,1.1,0.2,2.2,0.3,3.4s0.2,2.3,0.2,3.5v8.9h-3.4V31.3z"/>
		<path class="st4" d="M278.5,31.3h12.1v3H282v5.2h7.2v3H282v6h8.8v3h-12.4V31.3z"/>
	</g>
</g>
</svg>
